<svg xmlns="http://www.w3.org/2000/svg" viewBox="0 0 900 620" role="img" aria-labelledby="title desc">
  <title id="title">Movers carrying boxes</title>
  <desc id="desc">Professional movers working with cardboard boxes near a BoxMove van.</desc>
  <defs>
    <linearGradient id="bg" x1="0" x2="0" y1="0" y2="1"><stop offset="0" stop-color="#f7f0df"/><stop offset="1" stop-color="#d0ddd4"/></linearGradient>
    <filter id="shadow" x="-20%" y="-20%" width="140%" height="150%"><feDropShadow dx="0" dy="16" stdDeviation="12" flood-color="#000" flood-opacity=".25"/></filter>
  </defs>
  <rect width="900" height="620" fill="url(#bg)"/>
  <path d="M0 342 150 174l132 168 170-216 210 216 146-160 92 160v126H0z" fill="#d8e1d8"/>
  <rect y="392" width="900" height="228" fill="#293038"/>
  <g transform="translate(468 322) scale(.82)" filter="url(#shadow)">
    <rect x="40" y="86" width="360" height="142" rx="18" fill="#fff" stroke="#111" stroke-width="5"/>
    <rect x="70" y="26" width="242" height="82" rx="14" fill="#fff" stroke="#111" stroke-width="5"/>
    <path d="M310 36h70c40 16 62 42 78 76v58H310z" fill="#fff" stroke="#111" stroke-width="5"/>
    <rect x="338" y="60" width="58" height="44" rx="6" fill="#cfe7ee" stroke="#111" stroke-width="4"/>
    <rect x="106" y="139" width="140" height="40" rx="8" fill="#f3b31a"/>
    <text x="121" y="167" font-family="Arial, sans-serif" font-size="28" font-weight="800" fill="#111">BoxMove</text>
    <circle cx="124" cy="235" r="35" fill="#111"/><circle cx="124" cy="235" r="15" fill="#f8f8f0"/>
    <circle cx="330" cy="235" r="35" fill="#111"/><circle cx="330" cy="235" r="15" fill="#f8f8f0"/>
  </g>
  <g filter="url(#shadow)">
    <g transform="translate(86 344) scale(1.18)">
      <rect x="0" y="78" width="92" height="74" rx="8" fill="#c47b34"/><rect x="41" y="78" width="14" height="74" fill="#f0c15e"/>
      <rect x="82" y="20" width="106" height="132" rx="8" fill="#d3944b"/><rect x="130" y="20" width="16" height="132" fill="#f0c15e"/>
      <rect x="168" y="90" width="92" height="62" rx="8" fill="#b96a37"/><rect x="209" y="90" width="13" height="62" fill="#f0c15e"/>
      <rect x="38" y="-34" width="94" height="86" rx="8" fill="#d99c56"/><rect x="81" y="-34" width="14" height="86" fill="#f0c15e"/>
    </g>
    <g transform="translate(330 258) scale(1.22)">
      <circle cx="40" cy="28" r="24" fill="#c97851"/>
      <rect x="10" y="58" width="66" height="102" rx="13" fill="#139b72"/>
      <path d="M20 158 0 240M66 158l34 82M12 88l-62 48M76 88l78-42" stroke="#111" stroke-width="13" stroke-linecap="round"/>
      <path d="M24 75h38" stroke="#f3b31a" stroke-width="9" stroke-linecap="round"/>
    </g>
    <g transform="translate(590 292) scale(1.05)">
      <circle cx="40" cy="28" r="24" fill="#b86d49"/>
      <rect x="10" y="58" width="66" height="102" rx="13" fill="#1c63a0"/>
      <path d="M20 158 2 238M66 158l25 76M12 88l-76 18M76 88l58 28" stroke="#111" stroke-width="13" stroke-linecap="round"/>
      <rect x="-94" y="78" width="88" height="62" rx="8" fill="#d3944b"/>
      <rect x="-56" y="78" width="12" height="62" fill="#f0c15e"/>
    </g>
  </g>
</svg>