<svg xmlns="http://www.w3.org/2000/svg" viewBox="0 0 900 620" role="img" aria-labelledby="title desc">
  <title id="title">Turnkey moving service</title>
  <desc id="desc">Packed boxes, protective wrap and a cargo van prepared for a complete move.</desc>
  <defs>
    <linearGradient id="bg" x1="0" x2="0" y1="0" y2="1"><stop offset="0" stop-color="#f6efd9"/><stop offset="1" stop-color="#cadbd9"/></linearGradient>
    <filter id="shadow" x="-20%" y="-20%" width="140%" height="150%"><feDropShadow dx="0" dy="18" stdDeviation="14" flood-color="#000" flood-opacity=".24"/></filter>
  </defs>
  <rect width="900" height="620" fill="url(#bg)"/>
  <path d="M0 382 132 242l128 140 150-188 194 188 128-132 168 132v238H0z" fill="#dce4dd"/>
  <rect y="410" width="900" height="210" fill="#293038"/>
  <g filter="url(#shadow)">
    <g transform="translate(430 282) scale(.92)">
      <rect x="40" y="92" width="360" height="146" rx="18" fill="#fff" stroke="#111" stroke-width="5"/>
      <rect x="76" y="24" width="242" height="92" rx="16" fill="#fff" stroke="#111" stroke-width="5"/>
      <path d="M318 38h72c42 16 66 46 82 84v64H318z" fill="#fff" stroke="#111" stroke-width="5" stroke-linejoin="round"/>
      <rect x="348" y="66" width="60" height="46" rx="7" fill="#cfe7ee" stroke="#111" stroke-width="4"/>
      <rect x="102" y="148" width="146" height="40" rx="8" fill="#f3b31a"/>
      <text x="119" y="176" font-family="Arial, sans-serif" font-size="28" font-weight="800" fill="#111">BoxMove</text>
      <circle cx="126" cy="248" r="35" fill="#111"/><circle cx="126" cy="248" r="15" fill="#f8f8f0"/>
      <circle cx="334" cy="248" r="35" fill="#111"/><circle cx="334" cy="248" r="15" fill="#f8f8f0"/>
    </g>
    <g transform="translate(72 292)">
      <rect x="0" y="110" width="134" height="106" rx="10" fill="#c47b34"/><rect x="58" y="110" width="18" height="106" fill="#f2c25d"/>
      <rect x="116" y="54" width="148" height="162" rx="10" fill="#d5964f"/><rect x="182" y="54" width="20" height="162" fill="#f2c25d"/>
      <rect x="250" y="132" width="118" height="84" rx="10" fill="#b96a37"/><rect x="302" y="132" width="16" height="84" fill="#f2c25d"/>
    </g>
    <g transform="translate(202 152)">
      <rect x="0" y="0" width="170" height="220" rx="18" fill="#fff" stroke="#111" stroke-width="5"/>
      <path d="M40 70h92M40 116h92M40 162h66" stroke="#111" stroke-width="12" stroke-linecap="round"/>
      <path d="M42 72 58 88 90 48M42 118l16 16 32-40" fill="none" stroke="#139b72" stroke-width="10" stroke-linecap="round" stroke-linejoin="round"/>
    </g>
    <path d="M356 258c40-42 74-42 102 0" fill="none" stroke="#f3b31a" stroke-width="16" stroke-linecap="round"/>
    <circle cx="390" cy="252" r="20" fill="#f3b31a" stroke="#111" stroke-width="5"/>
  </g>
</svg>
