<svg xmlns="http://www.w3.org/2000/svg" viewBox="0 0 900 620" role="img" aria-labelledby="title desc">
  <title id="title">Junk and waste removal</title>
  <desc id="desc">A cargo van with bags, boxes and renovation waste prepared for removal.</desc>
  <defs>
    <linearGradient id="bg" x1="0" x2="0" y1="0" y2="1"><stop offset="0" stop-color="#edf5ee"/><stop offset="1" stop-color="#d5dfd5"/></linearGradient>
    <filter id="shadow" x="-20%" y="-20%" width="140%" height="150%"><feDropShadow dx="0" dy="18" stdDeviation="14" flood-color="#000" flood-opacity=".24"/></filter>
  </defs>
  <rect width="900" height="620" fill="url(#bg)"/>
  <path d="M0 378 112 248l128 130 144-172 184 172 134-120 198 120v242H0z" fill="#dce5dc"/>
  <rect y="414" width="900" height="206" fill="#293038"/>
  <g filter="url(#shadow)">
    <g transform="translate(410 304) scale(.9)">
      <rect x="40" y="92" width="362" height="146" rx="18" fill="#fff" stroke="#111" stroke-width="5"/>
      <rect x="76" y="24" width="240" height="92" rx="16" fill="#fff" stroke="#111" stroke-width="5"/>
      <path d="M316 38h74c42 16 66 46 84 84v64H316z" fill="#fff" stroke="#111" stroke-width="5" stroke-linejoin="round"/>
      <rect x="348" y="66" width="60" height="46" rx="7" fill="#cfe7ee" stroke="#111" stroke-width="4"/>
      <rect x="104" y="148" width="146" height="40" rx="8" fill="#f3b31a"/>
      <text x="121" y="176" font-family="Arial, sans-serif" font-size="28" font-weight="800" fill="#111">BoxMove</text>
      <circle cx="126" cy="248" r="35" fill="#111"/><circle cx="126" cy="248" r="15" fill="#f8f8f0"/>
      <circle cx="336" cy="248" r="35" fill="#111"/><circle cx="336" cy="248" r="15" fill="#f8f8f0"/>
    </g>
    <g transform="translate(80 326)">
      <path d="M52 86c-34 28-50 96-8 128h122c42-32 26-100-8-128-24 14-82 14-106 0z" fill="#5f6870" stroke="#111" stroke-width="5"/>
      <path d="M52 86c28-22 74-22 106 0" fill="none" stroke="#f3b31a" stroke-width="12" stroke-linecap="round"/>
      <path d="M232 84c-26 24-40 86-4 116h96c36-30 22-92-4-116-20 12-68 12-88 0z" fill="#69727a" stroke="#111" stroke-width="5"/>
      <path d="M232 84c24-18 60-18 88 0" fill="none" stroke="#139b72" stroke-width="10" stroke-linecap="round"/>
      <rect x="346" y="102" width="120" height="96" rx="10" fill="#c47b34" stroke="#111" stroke-width="5"/>
      <path d="M354 132h104M392 102v96" stroke="#f2c25d" stroke-width="12"/>
      <path d="M466 166h118M490 126h78M522 86h96" stroke="#d7c1a0" stroke-width="18" stroke-linecap="round"/>
    </g>
    <path d="M164 268h218" stroke="#e45835" stroke-width="16" stroke-linecap="round"/>
    <path d="M194 228h158" stroke="#139b72" stroke-width="14" stroke-linecap="round"/>
  </g>
</svg>
